<?xml version="1.0" encoding="UTF-8" standalone="no" ?>
<!DOCTYPE svg PUBLIC "-//W3C//DTD SVG 1.1//EN" "http://www.w3.org/Graphics/SVG/1.1/DTD/svg11.dtd">
<svg xmlns="http://www.w3.org/2000/svg" xmlns:xlink="http://www.w3.org/1999/xlink" version="1.1" width="360" height="150" viewBox="0 0 360 150" xml:space="preserve">
<desc>Created with Fabric.js 3.6.6</desc>
<defs>
</defs>
<g transform="matrix(10.69 0 0 10.69 176.31 73.9)"  >
<path style="stroke: none; stroke-width: 1; stroke-dasharray: none; stroke-linecap: butt; stroke-dashoffset: 0; stroke-linejoin: miter; stroke-miterlimit: 4; fill: rgb(145,141,149); fill-rule: nonzero; opacity: 1;"  transform=" translate(-16, -16)" d="M 0 21.527 h 6.224 v 0.889 H 0 z m 0 -1.71 h 6.224 v 0.891 H 0 z m 1.771 -1.708 h 2.672 v 0.896 H 1.771 z m 0 -1.702 h 2.672 v 0.896 H 1.771 z m 0 -1.71 h 2.672 v 0.896 H 1.771 z m 0 -1.708 h 2.672 v 0.896 H 1.771 z M 0 11.287 h 6.224 v 0.896 H 0 z m 0 -1.703 h 6.224 v 0.889 H 0 z m 7.109 11.124 h 9.568 c 0.161 -0.276 0.287 -0.577 0.359 -0.891 H 7.109 z m 8.823 -4.301 H 8.891 v 0.896 h 7.792 a 3.6 3.6 0 0 0 -0.745 -0.896 z m -7.047 -1.71 v 0.896 h 7.047 c 0.303 -0.249 0.547 -0.552 0.751 -0.896 z m 7.792 -3.41 H 7.109 v 0.896 h 9.921 a 3.6 3.6 0 0 0 -0.353 -0.896 M 13.74 9.584 H 7.109 v 0.889 h 8.912 a 3.37 3.37 0 0 0 -2.281 -0.889 m -4.855 3.405 h 2.667 v 0.896 H 8.885 z m 5.339 0.896 h 2.787 a 3.4 3.4 0 0 0 0.12 -0.896 h -2.907 z m -5.339 4.224 h 2.667 v 0.896 H 8.885 z m 5.339 0 v 0.896 h 2.907 c 0 -0.308 -0.043 -0.609 -0.12 -0.896 z m -7.115 4.303 l 6.625 0.004 c 0.891 0 1.692 -0.337 2.292 -0.889 H 7.109 z m 10.672 -0.885 h 4.437 v 0.889 h -4.437 z m 0 -1.71 h 4.437 v 0.891 h -4.437 z m 1.771 -1.708 h 2.667 v 0.896 h -2.667 z m 0 -1.702 h 2.667 v 0.896 h -2.667 z m 3.907 -5.12 h -5.677 v 0.896 h 5.984 z m -0.59 -1.703 h -5.088 v 0.889 h 5.396 z m 4.683 11.943 H 32 v 0.889 h -4.448 z m 0 -1.71 H 32 v 0.891 h -4.448 z m 0 -1.708 h 2.667 v 0.896 h -2.667 z m 0 -1.702 h 2.667 v 0.896 h -2.667 z m 0 -0.814 h 2.667 v -0.896 H 25.14 l -0.255 0.724 l -0.249 -0.724 h -5.084 v 0.896 h 2.667 v -0.823 l 0.287 0.823 h 4.765 l 0.281 -0.823 z m 2.667 -2.604 H 25.73 l -0.308 0.896 h 4.797 z m -3.307 -3.405 l -0.308 0.889 H 32 v -0.889 z m -2.027 12.828 l 0.308 -0.885 h -0.615 z m -0.588 -1.704 h 1.181 l 0.319 -0.891 h -1.813 z m -0.6 -1.703 h 2.381 l 0.312 -0.896 h -3.005 z m -0.593 -1.702 h 3.573 l 0.301 -0.896 h -4.181 z m -3.552 -3.418 h 4.803 l -0.308 -0.896 h -4.495 z m 6.464 -1.702 H 32 v -0.896 h -5.683 z" stroke-linecap="round" />
</g>
</svg>