<?xml version="1.0" encoding="UTF-8" standalone="no" ?>
<!DOCTYPE svg PUBLIC "-//W3C//DTD SVG 1.1//EN" "http://www.w3.org/Graphics/SVG/1.1/DTD/svg11.dtd">
<svg xmlns="http://www.w3.org/2000/svg" xmlns:xlink="http://www.w3.org/1999/xlink" version="1.1" width="640" height="150" viewBox="0 0 640 150" xml:space="preserve">
<desc>Created with Fabric.js 3.6.6</desc>
<defs>
</defs>
<g transform="matrix(12.66 0 0 12.66 320.75 74.25)"  >
<path style="stroke: none; stroke-width: 1; stroke-dasharray: none; stroke-linecap: butt; stroke-dashoffset: 0; stroke-linejoin: miter; stroke-miterlimit: 4; fill: rgb(145,141,149); fill-rule: nonzero; opacity: 1;"  transform=" translate(-27.99, -28.34)" d="M 8.07 28.6 v 5.072 H 3 V 28.6 z m 5.6 0 v 5.072 H 8.599 V 28.6 z m 36.093 -3.932 q 0.304 0 0.51 0.052 l 0.116 0.036 v 0.926 l -0.04 -0.018 a 1.2 1.2 0 0 0 -0.475 -0.108 q -0.323 0.001 -0.5 0.205 q -0.148 0.172 -0.174 0.482 l -0.005 0.129 v 0.577 h 1.619 v -1.036 l 1.082 -0.331 v 1.367 h 1.092 v 0.879 h -1.092 v 2.163 q 0 0.418 0.148 0.59 q 0.147 0.168 0.464 0.168 a 0.8 0.8 0 0 0 0.216 -0.036 a 1 1 0 0 0 0.155 -0.059 l 0.064 -0.037 l 0.045 -0.03 v 0.888 l -0.015 0.008 a 1.3 1.3 0 0 1 -0.337 0.107 q -0.24 0.052 -0.463 0.052 c -0.85 0 -1.304 -0.435 -1.355 -1.295 l -0.004 -0.166 v -2.353 h -1.619 v 3.703 h -1.091 v -3.703 h -0.76 v -0.88 h 0.76 v -0.634 q 0 -0.479 0.209 -0.856 q 0.211 -0.376 0.59 -0.583 c 0.252 -0.137 0.542 -0.207 0.86 -0.207 m -4.808 2.17 c 0.712 0 1.277 0.212 1.678 0.63 c 0.402 0.418 0.605 0.999 0.605 1.728 c 0 0.738 -0.217 1.336 -0.645 1.779 c -0.427 0.442 -1.016 0.667 -1.748 0.667 c -0.703 0 -1.271 -0.213 -1.689 -0.634 c -0.417 -0.42 -0.629 -0.998 -0.629 -1.715 c 0 -0.755 0.217 -1.36 0.645 -1.797 s 1.028 -0.658 1.783 -0.658 m -4.187 0 q 0.237 0 0.537 0.056 q 0.225 0.041 0.39 0.098 l 0.118 0.046 v 0.997 l -0.045 -0.031 a 1.8 1.8 0 0 0 -0.483 -0.224 a 1.9 1.9 0 0 0 -0.553 -0.085 q -0.295 0 -0.464 0.131 a 0.4 0.4 0 0 0 -0.166 0.327 q 0 0.226 0.13 0.353 q 0.06 0.056 0.186 0.126 l 0.2 0.1 l 0.124 0.053 l 0.138 0.057 q 0.642 0.26 0.908 0.579 c 0.178 0.213 0.268 0.478 0.268 0.787 c 0 0.428 -0.167 0.778 -0.497 1.041 c -0.328 0.26 -0.777 0.393 -1.335 0.393 c -0.18 0 -0.389 -0.024 -0.618 -0.072 a 3 3 0 0 1 -0.455 -0.127 l -0.14 -0.059 v -1.05 l 0.045 0.032 q 0.28 0.2 0.611 0.31 q 0.331 0.108 0.597 0.109 c 0.474 0 0.705 -0.15 0.705 -0.458 a 0.45 0.45 0 0 0 -0.068 -0.26 a 0.8 0.8 0 0 0 -0.243 -0.199 l -0.078 -0.043 l -0.206 -0.099 l -0.267 -0.115 q -0.445 -0.191 -0.664 -0.371 a 1.14 1.14 0 0 1 -0.326 -0.426 a 1.4 1.4 0 0 1 -0.106 -0.568 c 0 -0.414 0.166 -0.756 0.493 -1.017 c 0.324 -0.26 0.75 -0.39 1.264 -0.39 m -4.553 0 c 0.712 0 1.276 0.212 1.678 0.63 s 0.604 0.999 0.604 1.728 c 0 0.738 -0.216 1.336 -0.644 1.779 s -1.016 0.667 -1.749 0.667 c -0.703 0 -1.27 -0.213 -1.688 -0.634 c -0.418 -0.42 -0.63 -0.997 -0.63 -1.715 c 0 -0.755 0.218 -1.36 0.645 -1.797 s 1.028 -0.658 1.784 -0.658 m -7.093 0 q 0.29 0 0.602 0.065 q 0.235 0.048 0.398 0.12 l 0.115 0.057 v 1.04 l -0.045 -0.032 c -0.326 -0.237 -0.672 -0.357 -1.026 -0.357 c -0.414 0 -0.754 0.14 -1.01 0.417 c -0.258 0.278 -0.389 0.654 -0.389 1.118 c 0 0.462 0.125 0.829 0.372 1.09 q 0.372 0.393 1.01 0.394 q 0.229 0 0.516 -0.1 q 0.19 -0.067 0.362 -0.167 l 0.165 -0.108 l 0.045 -0.033 v 0.987 l -0.014 0.008 c -0.35 0.202 -0.788 0.305 -1.3 0.305 a 2.4 2.4 0 0 1 -1.178 -0.287 a 2.03 2.03 0 0 1 -0.807 -0.815 a 2.4 2.4 0 0 1 -0.289 -1.18 c 0 -0.495 0.1 -0.938 0.297 -1.318 c 0.198 -0.38 0.489 -0.68 0.865 -0.889 c 0.375 -0.209 0.816 -0.315 1.31 -0.315 m 4.155 0.031 q 0.202 0 0.34 0.036 l 0.1 0.036 v 1.087 l -0.046 -0.033 a 0.8 0.8 0 0 0 -0.251 -0.102 a 1.3 1.3 0 0 0 -0.324 -0.048 a 0.82 0.82 0 0 0 -0.697 0.369 q -0.23 0.32 -0.263 0.807 l -0.006 0.166 v 2.344 h -1.078 V 26.95 h 1.078 v 0.793 h 0.011 c 0.101 -0.257 0.233 -0.464 0.415 -0.614 q 0.313 -0.259 0.721 -0.259 m -7.37 0.08 v 4.582 h -1.078 V 26.95 z m -7.453 -1.812 l 1.878 4.75 l 1.935 -4.75 h 1.522 v 6.394 h -1.1 v -4.92 h -0.035 l -1.952 4.92 h -0.78 l -1.984 -4.92 h -0.035 v 4.92 h -1.034 v -6.394 z m 26.444 2.594 c -0.39 0 -0.7 0.133 -0.92 0.396 c -0.221 0.265 -0.333 0.645 -0.333 1.13 q 0 0.71 0.333 1.102 c 0.22 0.26 0.533 0.39 0.929 0.39 c 0.398 0 0.703 -0.128 0.906 -0.382 c 0.204 -0.256 0.307 -0.638 0.307 -1.136 c 0 -0.491 -0.11 -0.869 -0.327 -1.121 c -0.215 -0.252 -0.517 -0.38 -0.895 -0.38 m -8.74 0 c -0.39 0 -0.7 0.133 -0.92 0.396 c -0.221 0.265 -0.334 0.645 -0.334 1.13 q 0 0.71 0.334 1.102 q 0.332 0.39 0.928 0.39 q 0.6 0 0.906 -0.382 c 0.204 -0.256 0.308 -0.638 0.308 -1.136 c 0 -0.491 -0.11 -0.869 -0.327 -1.121 q -0.326 -0.379 -0.896 -0.38 M 8.07 23 v 5.071 H 3 V 23 z m 5.599 0 v 5.071 h -5.07 V 23 z m 11.709 1.996 q 0.281 0.001 0.469 0.185 a 0.6 0.6 0 0 1 0.187 0.445 a 0.57 0.57 0 0 1 -0.193 0.44 a 0.67 0.67 0 0 1 -0.463 0.176 a 0.66 0.66 0 0 1 -0.461 -0.175 a 0.58 0.58 0 0 1 -0.19 -0.441 q 0 -0.268 0.192 -0.45 a 0.65 0.65 0 0 1 0.459 -0.18" stroke-linecap="round" />
</g>
</svg>